o KnobBase
v 0.1 0.05 -3.0615158845559432E-18
v 0.0984807753012208 0.05 0.01736481776669303
v 0.0984807753012208 1.0632533085029997E-18 0.017364817766693033
v 0.1 0 0
v 0.093969262078590854 0.05 0.034202014332566873
v 0.093969262078590854 2.09420020325927E-18 0.034202014332566873
v 0.086602540378443879 0.05 0.049999999999999996
v 0.086602540378443879 3.0615158845559428E-18 0.049999999999999996
v 0.0766044443118978 0.05000000000000001 0.064278760968653925
v 0.0766044443118978 3.9358089549021715E-18 0.064278760968653925
v 0.064278760968653939 0.05000000000000001 0.0766044443118978
v 0.064278760968653939 4.6905144617691262E-18 0.0766044443118978
v 0.050000000000000017 0.05000000000000001 0.086602540378443865
v 0.050000000000000017 5.3027010602300669E-18 0.086602540378443865
v 0.034202014332566887 0.05000000000000001 0.09396926207859084
v 0.034202014332566887 5.7537677702721253E-18 0.09396926207859084
v 0.017364817766693044 0.05000000000000001 0.0984807753012208
v 0.017364817766693044 6.030009158161442E-18 0.0984807753012208
v 6.1230317691118864E-18 0.05000000000000001 0.1
v 6.1230317691118864E-18 6.1230317691118864E-18 0.1
v -0.01736481776669303 0.05000000000000001 0.0984807753012208
v -0.01736481776669303 6.030009158161442E-18 0.0984807753012208
v -0.034202014332566873 0.05000000000000001 0.093969262078590854
v -0.034202014332566873 5.7537677702721261E-18 0.093969262078590854
v -0.049999999999999982 0.05000000000000001 0.086602540378443879
v -0.049999999999999982 5.3027010602300676E-18 0.086602540378443879
v -0.064278760968653939 0.05000000000000001 0.0766044443118978
v -0.064278760968653939 4.6905144617691262E-18 0.0766044443118978
v -0.076604444311897793 0.05000000000000001 0.064278760968653953
v -0.076604444311897793 3.935808954902173E-18 0.064278760968653953
v -0.086602540378443879 0.05 0.049999999999999996
v -0.086602540378443879 3.0615158845559428E-18 0.049999999999999996
v -0.09396926207859084 0.05 0.034202014332566887
v -0.09396926207859084 2.0942002032592713E-18 0.034202014332566887
v -0.0984807753012208 0.05 0.017364817766693026
v -0.0984807753012208 1.0632533085029993E-18 0.01736481776669303
v -0.1 0.05 9.18454765366783E-18
v -0.1 7.4983036091106877E-34 1.2246063538223773E-17
v -0.0984807753012208 0.05 -0.01736481776669305
v -0.0984807753012208 -1.0632533085030004E-18 -0.017364817766693047
v -0.093969262078590854 0.05 -0.034202014332566866
v -0.093969262078590854 -2.0942002032592698E-18 -0.034202014332566866
v -0.086602540378443865 0.05 -0.050000000000000017
v -0.086602540378443865 -3.061515884555944E-18 -0.050000000000000017
v -0.0766044443118978 0.049999999999999996 -0.064278760968653925
v -0.0766044443118978 -3.9358089549021715E-18 -0.064278760968653925
v -0.064278760968653953 0.049999999999999996 -0.076604444311897793
v -0.064278760968653953 -4.6905144617691255E-18 -0.076604444311897793
v -0.050000000000000044 0.049999999999999996 -0.086602540378443837
v -0.050000000000000044 -5.3027010602300653E-18 -0.086602540378443837
v -0.034202014332566942 0.049999999999999996 -0.093969262078590826
v -0.034202014332566942 -5.7537677702721245E-18 -0.093969262078590826
v -0.017364817766693033 0.049999999999999996 -0.0984807753012208
v -0.017364817766693033 -6.030009158161442E-18 -0.0984807753012208
v -1.836909530733566E-17 0.049999999999999996 -0.1
v -1.836909530733566E-17 -6.1230317691118864E-18 -0.1
v 0.017364817766693 0.049999999999999996 -0.098480775301220819
v 0.017364817766693 -6.0300091581614428E-18 -0.098480775301220819
v 0.034202014332566817 0.049999999999999996 -0.093969262078590854
v 0.034202014332566817 -5.7537677702721261E-18 -0.093969262078590854
v 0.050000000000000017 0.049999999999999996 -0.086602540378443865
v 0.050000000000000017 -5.3027010602300669E-18 -0.086602540378443865
v 0.064278760968653925 0.049999999999999996 -0.076604444311897821
v 0.064278760968653925 -4.690514461769127E-18 -0.076604444311897821
v 0.076604444311897779 0.049999999999999996 -0.064278760968653967
v 0.076604444311897779 -3.9358089549021738E-18 -0.064278760968653967
v 0.086602540378443837 0.05 -0.050000000000000044
v 0.086602540378443837 -3.0615158845559459E-18 -0.050000000000000044
v 0.093969262078590854 0.05 -0.034202014332566859
v 0.093969262078590854 -2.0942002032592694E-18 -0.034202014332566859
v 0.098480775301220791 0.05 -0.01736481776669313
v 0.098480775301220791 -1.0632533085030052E-18 -0.017364817766693127
vn 0.1 0 0
vn 0.0984807753012208 1.0632533085029997E-18 0.017364817766693033
vn 0.093969262078590854 2.09420020325927E-18 0.034202014332566873
vn 0.086602540378443879 3.0615158845559428E-18 0.049999999999999996
vn 0.0766044443118978 3.9358089549021715E-18 0.064278760968653925
vn 0.064278760968653939 4.6905144617691262E-18 0.0766044443118978
vn 0.050000000000000017 5.3027010602300669E-18 0.086602540378443865
vn 0.034202014332566887 5.7537677702721253E-18 0.09396926207859084
vn 0.017364817766693044 6.030009158161442E-18 0.0984807753012208
vn 6.1230317691118864E-18 6.1230317691118864E-18 0.1
vn -0.01736481776669303 6.030009158161442E-18 0.0984807753012208
vn -0.034202014332566873 5.7537677702721261E-18 0.093969262078590854
vn -0.049999999999999982 5.3027010602300676E-18 0.086602540378443879
vn -0.064278760968653939 4.6905144617691262E-18 0.0766044443118978
vn -0.076604444311897793 3.935808954902173E-18 0.064278760968653953
vn -0.086602540378443879 3.0615158845559428E-18 0.049999999999999996
vn -0.09396926207859084 2.0942002032592713E-18 0.034202014332566887
vn -0.0984807753012208 1.0632533085029993E-18 0.01736481776669303
vn -0.1 7.4983036091106877E-34 1.2246063538223773E-17
vn -0.0984807753012208 -1.0632533085030004E-18 -0.017364817766693047
vn -0.093969262078590854 -2.0942002032592698E-18 -0.034202014332566866
vn -0.086602540378443865 -3.061515884555944E-18 -0.050000000000000017
vn -0.0766044443118978 -3.9358089549021715E-18 -0.064278760968653925
vn -0.064278760968653953 -4.6905144617691255E-18 -0.076604444311897793
vn -0.050000000000000044 -5.3027010602300653E-18 -0.086602540378443837
vn -0.034202014332566942 -5.7537677702721245E-18 -0.093969262078590826
vn -0.017364817766693033 -6.030009158161442E-18 -0.0984807753012208
vn -1.836909530733566E-17 -6.1230317691118864E-18 -0.1
vn 0.017364817766693 -6.0300091581614428E-18 -0.098480775301220819
vn 0.034202014332566817 -5.7537677702721261E-18 -0.093969262078590854
vn 0.050000000000000017 -5.3027010602300669E-18 -0.086602540378443865
vn 0.064278760968653925 -4.690514461769127E-18 -0.076604444311897821
vn 0.076604444311897779 -3.9358089549021738E-18 -0.064278760968653967
vn 0.086602540378443837 -3.0615158845559459E-18 -0.050000000000000044
vn 0.093969262078590854 -2.0942002032592694E-18 -0.034202014332566859
vn 0.098480775301220791 -1.0632533085030052E-18 -0.017364817766693127
vn 0 1 -6.1230317691118863E-17
vn 0 -1 6.1230317691118863E-17
g KnobBase
f 1//1 2//2 3//2 4//1
f 2//2 5//3 6//3 3//2
f 5//3 7//4 8//4 6//3
f 7//4 9//5 10//5 8//4
f 9//5 11//6 12//6 10//5
f 11//6 13//7 14//7 12//6
f 13//7 15//8 16//8 14//7
f 15//8 17//9 18//9 16//8
f 17//9 19//10 20//10 18//9
f 19//10 21//11 22//11 20//10
f 21//11 23//12 24//12 22//11
f 23//12 25//13 26//13 24//12
f 25//13 27//14 28//14 26//13
f 27//14 29//15 30//15 28//14
f 29//15 31//16 32//16 30//15
f 31//16 33//17 34//17 32//16
f 33//17 35//18 36//18 34//17
f 35//18 37//19 38//19 36//18
f 37//19 39//20 40//20 38//19
f 39//20 41//21 42//21 40//20
f 41//21 43//22 44//22 42//21
f 43//22 45//23 46//23 44//22
f 45//23 47//24 48//24 46//23
f 47//24 49//25 50//25 48//24
f 49//25 51//26 52//26 50//25
f 51//26 53//27 54//27 52//26
f 53//27 55//28 56//28 54//27
f 55//28 57//29 58//29 56//28
f 57//29 59//30 60//30 58//29
f 59//30 61//31 62//31 60//30
f 61//31 63//32 64//32 62//31
f 63//32 65//33 66//33 64//32
f 65//33 67//34 68//34 66//33
f 67//34 69//35 70//35 68//34
f 69//35 71//36 72//36 70//35
f 71//36 1//1 4//1 72//36
f 71//37 69//37 67//37 65//37 63//37 61//37 59//37 57//37 55//37 53//37 51//37 49//37 47//37 45//37 43//37 41//37 39//37 37//37 35//37 33//37 31//37 29//37 27//37 25//37 23//37 21//37 19//37 17//37 15//37 13//37 11//37 9//37 7//37 5//37 2//37 1//37
f 4//38 3//38 6//38 8//38 10//38 12//38 14//38 16//38 18//38 20//38 22//38 24//38 26//38 28//38 30//38 32//38 34//38 36//38 38//38 40//38 42//38 44//38 46//38 48//38 50//38 52//38 54//38 56//38 58//38 60//38 62//38 64//38 66//38 68//38 70//38 72//38
