o ShortButton
v -42 0 -15.75
v 42 0 -15.75
v 42 0 15.75
v -42 0 15.75
v -40 15 -15
v 40 15 -15
v -40 15 15
v 40 15 15
v -38 20 14.25
v -38 20 -14.25
v 38 20 -14.25
v 38 20 14.25
vt 0 1
vt 1 1
vt 1 0
vt 0 0
vt 0.0238095238095238 0.976190476190476
vt 0.976190476190476 0.976190476190476
vt 0.0238095238095238 0.0238095238095238
vt 0.976190476190476 0.0238095238095238
vt 0.0476190476190476 0.0476190476190476
vt 0.0476190476190476 0.952380952380952
vt 0.952380952380952 0.952380952380952
vt 0.952380952380952 0.0476190476190476
vn 0 -1 0
vn -1.74777E-17 0.0499376 -0.998752
vn -0.991228 0.132164 1.56337E-19
vn -0.928477 0.371391 0
vn 0 1 0
vn -1.75254E-17 0.14834 -0.988936
vn 0.928477 0.371391 -1.45651E-18
vn 0.991228 0.132164 0
vn 1.77436E-17 0.0499376 0.998752
vn 1.738E-17 0.14834 0.988936
g ShortButton
f 1/1/1 2/2/1 3/3/1 4/4/1
f 1/1/2 5/5/2 6/6/2 2/2/2
f 7/7/3 5/5/3 1/1/3 4/4/3
f 7/7/1 5/5/1 6/6/1 8/8/1
f 9/9/4 10/10/4 5/5/4 7/7/4
f 11/11/5 10/10/5 9/9/5 12/12/5
f 5/5/6 10/10/6 11/11/6 6/6/6
f 8/8/7 6/6/7 11/11/7 12/12/7
f 8/8/8 3/3/8 2/2/8 6/6/8
f 3/3/9 8/8/9 7/7/9 4/4/9
f 8/8/10 12/12/10 9/9/10 7/7/10
#h
